HIERARCHY
ROOT Hips
{
	OFFSET 0.000000 0.000000 0.000000
	CHANNELS 6 Xposition Yposition Zposition Zrotation Yrotation Xrotation 
	JOINT LHipJoint
	{
		OFFSET 0.000000 0.000000 0.000000
		CHANNELS 3 Zrotation Yrotation Xrotation
		JOINT LeftUpLeg
		{
			OFFSET 1.363060 -1.794630 0.839290
			CHANNELS 3 Zrotation Yrotation Xrotation
			JOINT LeftLeg
			{
				OFFSET 2.448110 -6.726130 0.000000
				CHANNELS 3 Zrotation Yrotation Xrotation
				JOINT LeftFoot
				{
					OFFSET 2.562200 -7.039590 0.000000
					CHANNELS 3 Zrotation Yrotation Xrotation
					JOINT LeftToeBase
					{
						OFFSET 0.157640 -0.433110 2.322550
						CHANNELS 3 Zrotation Yrotation Xrotation
						End Site
						{
							OFFSET 0.000000 0.000000 0.000000
						}
					}
				}
			}
		}
	}
	JOINT RHipJoint
	{
		OFFSET 0.000000 0.000000 0.000000
		CHANNELS 3 Zrotation Yrotation Xrotation
		JOINT RightUpLeg
		{
			OFFSET -1.305520 -1.794630 0.839290
			CHANNELS 3 Zrotation Yrotation Xrotation
			JOINT RightLeg
			{
				OFFSET -2.542530 -6.985550 0.000000
				CHANNELS 3 Zrotation Yrotation Xrotation
				JOINT RightFoot
				{
					OFFSET -2.568260 -7.056230 0.000000
					CHANNELS 3 Zrotation Yrotation Xrotation
					JOINT RightToeBase
					{
						OFFSET -0.164730 -0.452590 2.363150
						CHANNELS 3 Zrotation Yrotation Xrotation
						End Site
						{
							OFFSET 0.000000 0.000000 0.000000
						}
					}
				}
			}
		}
	}
}
MOTION
Frames: 24
Frame Time: 0.008333
24.259651 15.821209 2.286463 124.941210 -85.429459 -102.060958 -6.447037 1.058286 10.104944 -9.463333 -22.657660 -65.485043 -1.402398 1.166315 34.342468 1.599193 6.628229 -3.850591 1.260300 0.000001 -25.817700 11.825098 -6.220838 1.911941 3.801669 -9.634384 9.789964 1.573412 -0.600580 5.504601 0.685616 11.147759 18.781304 4.420200 -0.000001 -83.800600
24.003905 15.863635 2.273934 122.886075 -85.205949 -100.145461 -6.357570 1.125148 10.070857 -10.019302 -22.972811 -64.555969 -1.347310 1.196407 35.016746 1.767173 7.336399 -4.332404 1.264000 0.000000 -25.207700 12.020143 -6.236260 1.939054 3.193781 -9.555408 8.710527 1.238856 -0.884870 8.246927 0.506550 11.940432 22.102780 5.467000 0.000000 -84.858500
23.753763 15.908570 2.264039 121.232713 -84.984667 -98.695767 -6.301116 1.182725 9.988739 -10.669035 -23.135102 -63.441438 -1.324707 1.223543 35.589154 1.902935 7.876579 -4.916879 1.213900 0.000001 -24.456600 12.201034 -6.198104 1.938867 2.606760 -9.537975 7.487668 0.895443 -1.126724 11.315127 0.291738 12.724039 25.269548 6.561400 -0.000001 -84.575000
23.509578 15.955502 2.256171 119.756626 -84.759258 -97.483951 -6.267736 1.240173 9.868440 -11.415487 -23.166020 -62.141792 -1.335824 1.247209 36.044735 2.006203 8.252116 -5.588491 1.115399 0.000000 -23.569900 12.374574 -6.101429 1.904993 2.018153 -9.631780 6.131167 0.561444 -1.318762 14.669490 0.052733 13.337527 28.137169 7.565400 -0.000000 -82.979600
23.271024 16.004110 2.250005 118.317691 -84.533056 -96.362085 -6.252088 1.303233 9.720217 -12.243069 -23.078852 -60.674494 -1.379084 1.266294 36.371941 2.077675 8.468211 -6.328569 0.976500 0.000000 -22.582300 12.538701 -5.949425 1.836053 1.433214 -9.851680 4.655740 0.254227 -1.464490 18.253060 -0.197484 13.555586 30.569757 8.281300 0.000000 -80.272900
23.037464 16.054243 2.245739 116.855853 -84.321196 -95.253951 -6.255496 1.373611 9.554542 -13.114529 -22.876626 -59.075805 -1.449913 1.279135 36.567090 2.118312 8.528441 -7.119099 0.806800 -0.000001 -21.540000 12.683791 -5.753355 1.736671 0.884693 -10.182252 3.071177 -0.015128 -1.576572 22.003948 -0.448706 13.139482 32.450029 8.494500 -0.000000 -76.838600
22.808536 16.105837 2.242612 115.245766 -84.111901 -94.028247 -6.268092 1.456861 9.381923 -14.024160 -22.587201 -57.353082 -1.547155 1.283018 36.604132 2.133371 8.460854 -7.929497 0.621100 -0.000000 -20.524500 12.814615 -5.520361 1.603087 0.352112 -10.640619 1.388504 -0.246293 -1.671231 25.873529 -0.695461 11.958577 33.672858 8.071300 -0.000000 -73.095000
22.583059 16.158953 2.240818 113.511509 -83.915112 -92.691976 -6.292187 1.551134 9.210247 -14.935001 -22.214270 -55.545174 -1.665389 1.275649 36.479068 2.125855 8.279908 -8.736381 0.431000 -0.000000 -19.603400 12.923729 -5.262231 1.444502 -0.134953 -11.185977 -0.390665 -0.443340 -1.764244 29.809876 -0.937138 9.948893 34.151713 6.960400 -0.000001 -69.421299
22.360158 16.213667 2.240642 111.726138 -83.742147 -91.296856 -6.332601 1.652574 9.045608 -15.806950 -21.758275 -53.697785 -1.798307 1.254927 36.194731 2.098332 7.999287 -9.515778 0.247000 0.000001 -18.854900 13.003526 -4.990557 1.273569 -0.542705 -11.765235 -2.273885 -0.612564 -1.868213 33.767406 -1.174131 7.183978 33.809903 5.246500 -0.000001 -66.022100
22.139839 16.269816 2.240329 109.834686 -83.547474 -89.797344 -6.367107 1.766439 8.891619 -16.679115 -21.267895 -51.777241 -1.948748 1.217553 35.708778 2.060538 7.673757 -10.234773 0.081000 0.000000 -18.289400 13.074607 -4.701081 1.084224 -0.948097 -12.393308 -4.240174 -0.762475 -1.992025 37.706955 -1.404796 3.915599 32.587268 3.174300 -0.000000 -62.853500
21.920960 16.327374 2.241297 108.065703 -83.370188 -88.389033 -6.414498 1.881246 8.749254 -17.481549 -20.716549 -49.864026 -2.105672 1.163014 35.059655 2.011093 7.296932 -10.883404 -0.064000 0.000001 -17.955601 13.117824 -4.410981 0.902036 -1.266894 -12.969548 -6.313183 -0.895577 -2.140840 41.576621 -1.625514 0.400951 30.483820 1.016900 0.000000 -59.783500
21.703451 16.386059 2.243135 106.512847 -83.202057 -87.157870 -6.470345 1.994653 8.617843 -18.213193 -20.120194 -47.966561 -2.266117 1.089892 34.246933 1.954633 6.896516 -11.447070 -0.184800 0.000000 -17.826600 13.138671 -4.124138 0.735635 -1.511331 -13.459756 -8.488855 -1.014997 -2.314889 45.324881 -1.830624 -3.036797 27.559648 -0.916800 0.000001 -56.564900
21.487163 16.445506 2.245693 105.277361 -83.041703 -86.200371 -6.532294 2.103038 8.494726 -18.869709 -19.491760 -46.095352 -2.426367 0.997747 33.279569 1.895004 6.495955 -11.918275 -0.281000 -0.000000 -17.864001 13.140969 -3.843258 0.594537 -1.686341 -13.826359 -10.761638 -1.121336 -2.510184 48.897836 -2.013411 -6.123335 23.943561 -2.389201 -0.000000 -52.949700
21.271977 16.505334 2.249123 104.463983 -82.897797 -85.613462 -6.603119 2.201996 8.376589 -19.437568 -18.835807 -44.267674 -2.581594 0.887115 32.178527 1.834393 6.108848 -12.298483 -0.355000 0.000000 -18.010300 13.124187 -3.571770 0.490444 -1.781903 -14.027865 -13.126034 -1.212931 -2.718744 52.242648 -2.167775 -8.679140 19.821981 -3.282000 -0.000000 -48.759500
21.058002 16.565021 2.253430 104.135057 -82.776330 -85.457650 -6.684084 2.288380 8.259702 -19.910382 -18.160622 -42.490638 -2.727823 0.759345 30.965272 1.775081 5.748421 -12.594205 -0.410200 -0.000000 -18.199900 13.088885 -3.309909 0.430948 -1.796787 -14.038211 -15.569126 -1.286750 -2.930870 55.312375 -2.288254 -10.615481 15.410747 -3.595800 -0.000000 -43.898400
20.845216 16.623918 2.258505 104.313359 -82.681371 -85.755399 -6.775129 2.360488 8.140844 -20.286040 -17.476489 -40.766047 -2.862002 0.616458 29.662068 1.718998 5.424215 -12.817280 -0.450700 -0.000000 -18.368700 13.036218 -3.055595 0.420066 -1.735153 -13.845796 -18.073700 -1.339662 -3.136784 58.067772 -2.371315 -11.924449 10.935954 -3.427600 0.000000 -38.416500
20.633724 16.681541 2.264332 104.989678 -82.619927 -86.502168 -6.879579 2.416717 8.016549 -20.559282 -16.786313 -39.094708 -2.981147 0.461382 28.295638 1.666401 5.136014 -12.983070 -0.480800 -0.000000 -18.464199 12.963834 -2.807553 0.459865 -1.594908 -13.446683 -20.618063 -1.370228 -3.327474 60.475700 -2.417231 -12.663742 6.625080 -2.935300 -0.000000 -32.579500
20.423370 16.737250 2.270750 106.112696 -82.594209 -87.653585 -6.998080 2.457185 7.884189 -20.731762 -16.095824 -37.470355 -3.083760 0.297378 26.888980 1.617171 4.880323 -13.107651 -0.503900 -0.000000 -18.452200 12.871294 -2.563160 0.548375 -1.381757 -12.852873 -23.177754 -1.380208 -3.495884 62.511629 -2.429356 -12.926189 2.691750 -2.290400 -0.000000 -26.879500
20.214237 16.790520 2.277479 107.599208 -82.604354 -89.134091 -7.130075 2.483201 7.742737 -20.808301 -15.411182 -35.884870 -3.169500 0.127751 25.461264 1.570491 4.649156 -13.205711 -0.522700 0.000000 -18.321000 12.758823 -2.320356 0.681084 -1.104220 -12.088425 -25.729151 -1.374426 -3.637383 64.162208 -2.412796 -12.819701 -0.692587 -1.639800 0.000000 -21.886400
20.005773 16.840820 2.284178 109.334136 -82.646500 -90.840541 -7.274130 2.496999 7.591746 -20.799894 -14.738229 -34.321288 -3.239247 -0.044424 24.024280 1.524923 4.432399 -13.286882 -0.538500 -0.000000 -18.083300 12.627231 -2.077912 0.849885 -0.777758 -11.190357 -28.245292 -1.358847 -3.750111 65.426061 -2.372997 -12.449847 -3.427780 -1.080900 -0.000000 -18.056100
19.797666 16.887684 2.290534 111.181096 -82.718891 -92.646113 -7.427519 2.501270 7.433051 -20.716342 -14.084809 -32.767856 -3.294405 -0.216505 22.585989 1.478757 4.218437 -13.356839 -0.551700 0.000000 -17.772000 12.477920 -1.835663 1.045548 -0.413612 -10.201252 -30.707315 -1.337576 -3.834522 66.313491 -2.315893 -11.912123 -5.506192 -0.655800 -0.000000 -15.512000
19.589757 16.930707 2.296113 112.981563 -82.814657 -94.404190 -7.586138 2.499265 7.270061 -20.575045 -13.463318 -31.203379 -3.337243 -0.386799 21.142574 1.430730 4.000663 -13.413057 -0.561800 0.000000 -17.433700 12.313147 -1.593686 1.257152 -0.031367 -9.169978 -33.093665 -1.311716 -3.892782 66.840551 -2.247976 -11.286541 -6.994476 -0.364200 -0.000001 -14.111701
19.381262 16.969532 2.300632 114.580548 -82.931418 -95.965184 -7.746478 2.493817 7.107720 -20.388908 -12.886352 -29.617082 -3.369578 -0.554151 19.689559 1.379767 3.773843 -13.449722 -0.567500 -0.000000 -17.119300 12.134548 -1.353119 1.476075 0.356935 -8.137933 -35.392854 -1.279582 -3.927635 67.025400 -2.176649 -10.639321 -8.002275 -0.182600 0.000000 -13.562201
19.171622 17.003866 2.303873 115.835045 -83.067627 -97.186967 -7.905808 2.487304 6.951994 -20.169236 -12.367436 -28.002519 -3.392838 -0.718102 18.219284 1.325286 3.536382 -13.457656 -0.567600 0.000000 -16.873900 11.943256 -1.116167 1.696319 0.741115 -7.137546 -37.597353 -1.237700 -3.941847 66.884072 -2.108634 -10.017954 -8.654099 -0.080200 -0.000001 -13.541600
